<?xml version="1.0" standalone="no"?>
<!DOCTYPE svg PUBLIC "-//W3C//DTD SVG 20010904//EN"
 "http://www.w3.org/TR/2001/REC-SVG-20010904/DTD/svg10.dtd">
<svg version="1.0" xmlns="http://www.w3.org/2000/svg"
 width="512.000000pt" height="512.000000pt" viewBox="0 0 512.000000 512.000000"
 preserveAspectRatio="xMidYMid meet">

<g transform="translate(0.000000,512.000000) scale(0.100000,-0.100000)"
fill="#000000" stroke="none">
<path d="M2225 4526 c-57 -26 -108 -79 -124 -128 -5 -18 -24 -125 -40 -237
-17 -112 -32 -205 -33 -207 -13 -12 -112 -43 -121 -37 -7 4 -91 66 -189 139
-143 108 -185 134 -227 143 -63 13 -136 1 -188 -33 -68 -44 -390 -377 -412
-426 -26 -58 -28 -147 -3 -198 10 -20 72 -109 138 -197 66 -88 124 -166 128
-173 5 -8 -1 -38 -14 -71 l-21 -58 -187 -27 c-103 -14 -208 -31 -234 -37 -70
-16 -121 -58 -154 -126 l-29 -58 0 -280 c0 -273 1 -281 24 -333 25 -54 74
-106 120 -124 14 -5 116 -23 226 -39 110 -16 209 -31 221 -34 15 -3 27 -21 42
-61 l20 -56 -138 -185 c-93 -124 -142 -199 -150 -229 -16 -56 -8 -130 21 -186
29 -58 360 -389 418 -418 55 -28 136 -36 187 -20 21 7 123 75 225 151 l186
139 56 -24 c64 -29 55 -4 92 -261 14 -99 33 -199 41 -222 18 -48 62 -96 119
-126 38 -21 52 -22 335 -22 l295 0 53 29 c57 32 92 72 110 125 7 19 26 127 42
240 17 113 34 209 38 213 4 3 30 16 58 27 l52 20 186 -139 c198 -148 235 -166
318 -157 81 10 126 42 311 226 204 202 227 236 227 341 0 84 -7 97 -158 298
-68 89 -125 168 -128 175 -2 7 6 38 19 68 l25 54 198 28 c110 16 216 33 237
38 49 13 110 68 139 127 22 46 23 54 23 337 l0 290 -27 52 c-26 48 -64 86
-113 111 -12 6 -120 25 -240 42 -121 17 -223 35 -226 38 -3 4 -15 30 -26 58
l-20 51 134 179 c74 98 141 194 149 213 8 18 14 59 14 90 0 97 -26 134 -236
342 -104 103 -199 192 -211 198 -42 22 -121 31 -172 20 -38 -8 -86 -38 -236
-150 l-187 -141 -58 22 -58 22 -17 116 c-53 358 -60 381 -134 433 -65 46 -87
49 -385 49 -273 0 -282 -1 -331 -24z m589 -443 c21 -148 40 -279 43 -293 4
-22 18 -30 101 -59 53 -18 137 -53 185 -78 49 -24 93 -40 100 -36 7 4 109 80
228 169 l216 162 153 -153 c108 -109 150 -157 144 -166 -4 -8 -81 -111 -170
-229 l-161 -216 44 -87 c24 -49 59 -131 79 -184 19 -53 36 -98 37 -99 1 -2
119 -19 262 -39 143 -19 275 -38 293 -41 l32 -6 0 -213 c0 -195 -2 -214 -17
-219 -10 -2 -139 -21 -288 -42 -148 -20 -274 -40 -278 -44 -4 -4 -24 -49 -43
-101 -19 -52 -53 -132 -75 -177 -22 -46 -38 -90 -35 -97 3 -8 77 -110 165
-228 89 -117 161 -218 161 -223 0 -5 -67 -76 -149 -158 l-149 -149 -231 171
-230 172 -99 -49 c-54 -28 -138 -62 -185 -78 l-86 -28 -7 -45 c-4 -25 -23
-160 -43 -300 l-36 -255 -212 -3 -213 -2 -5 22 c-2 13 -21 140 -40 283 -20
143 -40 269 -44 280 -6 14 -36 29 -92 49 -46 16 -128 51 -182 78 l-97 48 -227
-170 -227 -171 -154 154 -154 154 170 228 171 227 -41 82 c-23 44 -58 128 -78
186 l-38 104 -293 42 c-162 23 -295 43 -296 43 -2 1 -3 98 -3 216 0 118 1 215
3 215 1 0 128 18 282 40 154 22 285 40 291 40 6 0 28 46 48 103 21 56 57 140
80 186 l43 85 -168 225 c-93 124 -169 228 -169 231 0 3 69 73 153 157 l152
151 228 -170 228 -170 96 46 c52 26 134 60 182 76 55 19 88 36 93 47 4 10 23
137 43 283 20 146 38 271 40 278 3 9 56 12 218 12 l214 0 37 -267z"/>
<path d="M2425 3414 c-277 -45 -532 -232 -661 -486 -132 -260 -123 -577 23
-838 66 -118 215 -267 333 -333 155 -87 313 -123 490 -114 384 21 712 287 815
663 25 93 31 293 11 393 -43 213 -153 392 -321 527 -159 128 -314 184 -525
189 -74 2 -148 1 -165 -1z m293 -220 c181 -38 366 -184 450 -354 52 -107 74
-199 73 -315 -1 -186 -64 -338 -196 -470 -90 -90 -155 -132 -265 -172 -68 -24
-88 -27 -215 -28 -132 0 -145 2 -226 31 -172 61 -305 177 -384 336 -59 117
-79 212 -73 342 16 333 273 610 600 644 87 9 137 6 236 -14z"/>
</g>
</svg>
